<svg width="37" height="37" viewBox="0 0 37 37" fill="none" xmlns="http://www.w3.org/2000/svg">
<path d="M1.83325 3.91667C1.83325 2.76608 2.76599 1.83334 3.91659 1.83334H33.0833C34.2338 1.83334 35.1666 2.76608 35.1666 3.91667V8.08334C35.1666 9.23393 34.2338 10.1667 33.0833 10.1667H3.91659C2.76599 10.1667 1.83325 9.23393 1.83325 8.08334V3.91667Z" stroke="url(#paint0_linear_265_162)" stroke-width="3" stroke-linecap="round" stroke-linejoin="round"/>
<path d="M1.83325 20.5833C1.83325 19.4327 2.76599 18.5 3.91659 18.5H16.4166C17.5672 18.5 18.4999 19.4327 18.4999 20.5833V33.0833C18.4999 34.2339 17.5672 35.1667 16.4166 35.1667H3.91659C2.76599 35.1667 1.83325 34.2339 1.83325 33.0833V20.5833Z" stroke="url(#paint1_linear_265_162)" stroke-width="3" stroke-linecap="round" stroke-linejoin="round"/>
<path d="M26.8333 20.5833C26.8333 19.4327 27.766 18.5 28.9166 18.5H33.0833C34.2338 18.5 35.1666 19.4327 35.1666 20.5833V33.0833C35.1666 34.2339 34.2338 35.1667 33.0833 35.1667H28.9166C27.766 35.1667 26.8333 34.2339 26.8333 33.0833V20.5833Z" stroke="url(#paint2_linear_265_162)" stroke-width="3" stroke-linecap="round" stroke-linejoin="round"/>
<defs>
<linearGradient id="paint0_linear_265_162" x1="18.4999" y1="1.83334" x2="18.4999" y2="35.1667" gradientUnits="userSpaceOnUse">
<stop stop-color="#7AFF6A"/>
<stop offset="0.0001" stop-color="white"/>
<stop offset="1" stop-color="#00ACF5"/>
</linearGradient>
<linearGradient id="paint1_linear_265_162" x1="18.4999" y1="1.83334" x2="18.4999" y2="35.1667" gradientUnits="userSpaceOnUse">
<stop stop-color="#7AFF6A"/>
<stop offset="0.0001" stop-color="white"/>
<stop offset="1" stop-color="#00ACF5"/>
</linearGradient>
<linearGradient id="paint2_linear_265_162" x1="18.4999" y1="1.83334" x2="18.4999" y2="35.1667" gradientUnits="userSpaceOnUse">
<stop stop-color="#7AFF6A"/>
<stop offset="0.0001" stop-color="white"/>
<stop offset="1" stop-color="#00ACF5"/>
</linearGradient>
</defs>
</svg>
